<svg width="18" height="18" viewBox="0 0 18 18" fill="none" xmlns="http://www.w3.org/2000/svg">
<path opacity="0.9" d="M18 0.992411V17.0036C18 17.554 17.554 17.996 17.0076 17.996H12.4192V11.029H14.7576L15.1071 8.31295H12.4152V6.57723C12.4152 5.78973 12.6321 5.25536 13.7612 5.25536H15.1996V2.82455C14.9504 2.79241 14.0987 2.71607 13.1022 2.71607C11.029 2.71607 9.6067 3.9817 9.6067 6.30804V8.31295H7.26027V11.029H9.6067V18H0.992411C0.445982 18 0 17.554 0 17.0076V0.992411C0 0.445982 0.445982 0 0.992411 0H17.0036C17.554 0 18 0.445982 18 0.992411Z" fill="#FCFCFC"/>
</svg>
