<svg width="18" height="18" viewBox="0 0 18 18" fill="none" xmlns="http://www.w3.org/2000/svg">
<path opacity="0.9" d="M9.00201 4.38405C6.44808 4.38405 4.38806 6.44406 4.38806 8.99799C4.38806 11.5519 6.44808 13.6119 9.00201 13.6119C11.5559 13.6119 13.616 11.5519 13.616 8.99799C13.616 6.44406 11.5559 4.38405 9.00201 4.38405ZM9.00201 11.9977C7.35159 11.9977 6.00234 10.6524 6.00234 8.99799C6.00234 7.34356 7.34757 5.99833 9.00201 5.99833C10.6564 5.99833 12.0017 7.34356 12.0017 8.99799C12.0017 10.6524 10.6524 11.9977 9.00201 11.9977ZM14.8809 4.19531C14.8809 4.79364 14.399 5.2715 13.8047 5.2715C13.2064 5.2715 12.7285 4.78963 12.7285 4.19531C12.7285 3.601 13.2104 3.11913 13.8047 3.11913C14.399 3.11913 14.8809 3.601 14.8809 4.19531ZM17.9368 5.28756C17.8685 3.84596 17.5392 2.56899 16.4831 1.5169C15.431 0.464807 14.154 0.135527 12.7124 0.063246C11.2267 -0.021082 6.77334 -0.021082 5.28756 0.063246C3.84997 0.131511 2.57301 0.460792 1.5169 1.51288C0.460792 2.56498 0.135527 3.84194 0.063246 5.28355C-0.021082 6.76933 -0.021082 11.2226 0.063246 12.7084C0.131511 14.15 0.460792 15.427 1.5169 16.4791C2.57301 17.5312 3.84596 17.8605 5.28756 17.9327C6.77334 18.0171 11.2267 18.0171 12.7124 17.9327C14.154 17.8645 15.431 17.5352 16.4831 16.4791C17.5352 15.427 17.8645 14.15 17.9368 12.7084C18.0211 11.2226 18.0211 6.77334 17.9368 5.28756ZM16.0173 14.3026C15.7041 15.0897 15.0977 15.696 14.3066 16.0133C13.122 16.4831 10.3111 16.3747 9.00201 16.3747C7.69292 16.3747 4.87797 16.4791 3.69738 16.0133C2.91032 15.7001 2.30396 15.0937 1.98673 14.3026C1.5169 13.118 1.62532 10.3071 1.62532 8.99799C1.62532 7.6889 1.52091 4.87395 1.98673 3.69336C2.29994 2.9063 2.9063 2.29994 3.69738 1.98271C4.88199 1.51288 7.69292 1.6213 9.00201 1.6213C10.3111 1.6213 13.126 1.5169 14.3066 1.98271C15.0937 2.29593 15.7001 2.90229 16.0173 3.69336C16.4871 4.87797 16.3787 7.6889 16.3787 8.99799C16.3787 10.3071 16.4871 13.122 16.0173 14.3026Z" fill="#FCFCFC"/>
</svg>
