<svg width="18" height="15" viewBox="0 0 18 15" fill="none" xmlns="http://www.w3.org/2000/svg">
<path opacity="0.9" d="M2.13231 2.91379C2.15464 2.69423 2.06905 2.47467 1.90531 2.32582L0.227 0.301426V0H5.44428L9.47819 8.84557L13.0246 0H18V0.301426L16.5636 1.67831C16.4408 1.77135 16.3775 1.92764 16.4036 2.08022V12.2022C16.3775 12.3548 16.4408 12.5111 16.5636 12.6041L17.9665 13.981V14.2824H10.9072V13.981L12.3622 12.5706C12.5036 12.4292 12.5036 12.3845 12.5036 12.1687V3.98925L8.45855 14.2564H7.91152L3.20777 3.98925V10.87C3.16684 11.1602 3.26359 11.4505 3.46827 11.6589L5.35869 13.9512V14.2526H0V13.9549L1.89043 11.6589C2.09138 11.4505 2.18441 11.1565 2.13231 10.87V2.91379Z" fill="#FCFCFC"/>
</svg>
