<svg width="12" height="9" viewBox="0 0 12 9" fill="none" xmlns="http://www.w3.org/2000/svg">
<path d="M10.875 0H1.125C0.503906 0 0 0.503906 0 1.125V7.875C0 8.49609 0.503906 9 1.125 9H10.875C11.4961 9 12 8.49609 12 7.875V1.125C12 0.503906 11.4961 0 10.875 0ZM1.125 0.75H10.875C11.0813 0.75 11.25 0.91875 11.25 1.125V2.09531C10.7367 2.52891 10.0031 3.12656 7.72031 4.93828C7.32422 5.25234 6.54375 6.00938 6 6C5.45625 6.00938 4.67344 5.25234 4.27969 4.93828C1.99688 3.12656 1.26328 2.52891 0.75 2.09531V1.125C0.75 0.91875 0.91875 0.75 1.125 0.75ZM10.875 8.25H1.125C0.91875 8.25 0.75 8.08125 0.75 7.875V3.07031C1.28437 3.50859 2.12812 4.18594 3.81328 5.52422C4.29375 5.90859 5.14219 6.75469 6 6.75C6.85313 6.75703 7.69453 5.91797 8.18672 5.52422C9.87187 4.18594 10.7156 3.50859 11.25 3.07031V7.875C11.25 8.08125 11.0813 8.25 10.875 8.25Z" fill="#FCFCFC"/>
</svg>
