<svg width="163" height="39" viewBox="0 0 163 39" fill="none" xmlns="http://www.w3.org/2000/svg">
<path d="M49.8022 15.6916C51.6678 15.6916 53.18 14.2098 53.18 12.3821C53.18 10.5542 51.6678 9.0727 49.8022 9.0727C47.9366 9.0727 46.4244 10.5542 46.4244 12.3821C46.4244 14.2098 47.9366 15.6916 49.8022 15.6916ZM161.279 26.9988C160.765 26.6449 160.368 26.5862 160.039 27.2735C154.366 39.3088 144.806 33.303 145.755 33.8316C147.876 32.8814 153.453 28.5002 152.61 22.4508C152.098 18.7537 148.859 17.1138 145.42 17.701C139.418 18.726 137.21 25.0673 138.334 30.6815C138.53 31.6456 138.882 32.4408 139.233 33.2198C132.45 38.6225 129.756 28.3833 129.451 27.1597C129.439 27.0942 134.688 22.8084 136.148 12.5957C137.679 1.89223 134.192 -0.0566975 130.628 0.00410902C124.031 0.116679 122.249 13.616 124.644 24.8668C124.443 24.9179 123.51 25.4244 122.01 25.4811C120.931 22.1548 116.319 19.2392 115.112 20.3628C112.092 23.1733 115.845 28.668 118.486 29.0989C116.899 38.6693 106.978 36.2991 108.825 24.3089C112.056 18.4325 114.513 9.6948 114.074 4.41991C113.919 2.55237 112.509 0.0502596 109.321 0.174367C103.189 0.411981 102.523 13.9151 103.242 23.4988C103.206 23.2628 102.865 24.6632 100.352 25.3595C99.7575 22.128 94.4454 18.8844 93.1948 20.4438C90.8539 23.3625 94.9108 28.5667 96.8324 28.9296C95.246 38.4996 85.3253 36.1294 87.1721 24.1393C90.4028 18.2632 92.8596 9.52548 92.4212 4.25059C92.2659 2.38274 90.8565 -0.119375 87.6681 0.00442084C81.5362 0.242346 80.8696 13.7455 81.5884 23.3292C81.5525 23.0894 81.2032 24.536 78.5879 25.2207C78.5003 21.0282 73.1688 19.1058 71.888 20.4435C69.6054 22.8281 72.4108 27.7207 75.006 28.9296C73.4197 38.4996 63.4989 36.1294 65.3457 24.1393C68.5765 18.2632 71.0336 9.52548 70.5949 4.25059C70.4398 2.38274 69.0301 -0.119375 65.8418 0.00442084C59.7102 0.242346 59.2167 14.4243 59.9356 24.0077C57.9159 32.4835 51.1428 43.0682 52.0227 21.8648C52.1096 20.3774 52.2045 19.8127 51.4475 19.2558C50.8801 18.823 49.5902 19.0313 48.885 19.0484C48.028 19.0821 47.8131 19.5732 47.6237 20.3157C47.1824 22.2328 47.1031 24.0913 47.0401 26.6271C46.9987 27.8133 46.9016 28.3668 46.4352 29.9842C45.9695 31.6014 43.3121 34.5572 41.8572 34.0629C39.8388 33.3832 40.501 27.802 40.8792 23.9675C41.1944 20.9371 40.1852 19.5763 37.5995 19.0815C36.0857 18.7724 35.1659 18.8198 33.5894 18.3331C32.0986 17.8728 31.7614 15.1106 28.5816 16.0312C26.8424 16.5351 27.9605 20.1445 27.5425 22.8197C25.4875 35.9791 21.2116 36.3405 19.2279 29.9481C28.162 8.51578 21.8124 0.0664747 18.0955 0.0664747C14.2243 0.0664747 9.79909 2.67835 11.673 19.3899C10.7618 19.1295 10.4817 18.9892 9.48424 18.9892C3.84323 18.9892 0 23.4558 0 28.9658C0 34.4758 3.84355 38.9427 9.48455 38.9427C12.8146 38.9427 15.1526 37.4594 16.9233 35.1646C18.0787 36.7852 19.4855 38.9677 22.0581 38.8695C29.7265 38.577 31.9566 23.1698 32.2198 22.3104C33.0396 22.4342 33.8151 22.6684 34.5722 22.7922C35.8335 22.9778 35.9252 23.4667 35.8966 24.7093C35.5623 35.188 37.5364 38.857 42.0145 38.857C44.5095 38.857 46.7332 36.4559 48.2651 34.739C49.4093 37.0521 51.2326 38.7862 53.6785 38.8567C59.6054 39.0011 61.8747 29.7482 61.6677 30.9659C61.5054 31.9213 63.5906 38.8046 69.6923 38.8295C77.2505 38.8607 78.6554 30.7195 78.8228 29.3559C78.8439 29.0846 78.8531 29.1127 78.8228 29.3559L78.8171 29.4385C81.2166 29.0013 82.4547 27.7412 82.4547 27.7412C82.4547 27.7412 84.3814 38.9562 91.5184 38.8299C98.9298 38.6983 100.327 31.3391 100.511 29.9041C100.535 29.5636 100.549 29.6035 100.511 29.9041C100.51 29.9181 100.509 29.9321 100.508 29.9462C103.358 28.9306 104.108 27.9112 104.108 27.9112C104.108 27.9112 105.639 38.9031 113.172 38.9992C119.884 39.0852 122.371 32.3526 122.386 29.5346C123.518 29.5464 125.612 28.8766 125.563 28.8386C125.563 28.8386 128.022 38.4491 134.888 38.9427C138.112 39.1744 140.53 37.1659 141.909 36.2498C145.148 38.8196 155.936 42.1019 162.747 30.7903C163.709 29.1669 161.642 27.2492 161.279 26.9988ZM9.21236 35.2114C5.92116 35.2114 3.81076 32.2306 3.81076 29.0166C3.81076 25.8029 5.74797 22.8222 9.03917 22.8222C10.5202 22.8222 11.3441 22.9818 12.4975 23.9644C12.7067 24.7717 13.2994 26.6339 13.5879 27.4796C13.9744 28.6112 14.4341 29.5745 14.8976 30.6228C14.2354 33.3117 12.0645 35.2114 9.21236 35.2114ZM17.2325 24.0589C17.0956 23.8453 17.1242 23.9765 16.9711 23.7748C16.3678 22.1673 15.2051 18.5794 15.0705 14.5041C14.9183 9.89406 15.7027 4.49038 18.0153 4.49038C19.5823 4.49038 21.2476 15.4418 17.2321 24.0589H17.2325ZM63.5731 19.2555C63.2019 16.5198 63.1825 4.32418 66.1716 4.66002C67.8219 5.31486 65.1251 16.8229 63.5731 19.2555ZM85.3995 19.2555C85.0283 16.5198 85.0089 4.32418 87.998 4.66002C89.6483 5.31486 86.9515 16.8229 85.3995 19.2555ZM107.053 19.4254C106.681 16.6894 106.662 4.49381 109.651 4.82965C111.301 5.48449 108.604 16.9928 107.053 19.4254ZM130.958 3.94624C133.69 3.66872 133.578 15.3579 128.092 22.7376C127.385 20.0703 126.3 4.86208 130.958 3.94593V3.94624ZM142.444 29.0989C141.566 24.7561 143.834 21.9038 146.172 21.5911C146.99 21.4632 148.174 21.9818 148.41 22.9512C148.798 24.7782 148.354 27.4883 143.121 30.9269C143.129 30.9562 142.64 30.0662 142.444 29.0989H142.444Z" fill="#F61067"/>
</svg>
