<svg width="54" height="62" viewBox="0 0 54 62" fill="none" xmlns="http://www.w3.org/2000/svg">
<path opacity="0.5" d="M26.9998 24.1071C23.2777 24.1071 20.2486 27.1349 20.2486 30.857C20.2486 34.5792 23.2777 37.607 26.9998 37.607C30.722 37.607 33.751 34.5792 33.751 30.857C33.751 27.1349 30.722 24.1071 26.9998 24.1071ZM26.9998 33.7499C25.4015 33.7499 24.107 32.4541 24.107 30.857C24.107 29.2587 25.4027 27.9642 26.9998 27.9642C28.5969 27.9642 29.8927 29.2587 29.8927 30.857C29.8927 32.4541 28.5981 33.7499 26.9998 33.7499ZM49.7473 30.857C51.6216 28.4138 52.9668 25.9609 53.5935 23.6249C54.3204 20.8996 54.0684 18.3913 52.8631 16.3699C50.6657 12.6936 45.5876 11.1917 39.1799 11.7377C36.3775 4.55865 32.0081 0 26.9998 0C21.9916 0 17.6222 4.55744 14.8209 11.7365C8.41207 11.1905 3.33513 12.6924 1.14018 16.3711C-0.0687912 18.3913 -0.32071 20.8996 0.406118 23.6249C1.0329 25.9609 2.37808 28.4138 4.2524 30.857C2.37808 33.3003 1.0329 35.7532 0.406118 38.0892C-0.32071 40.8145 -0.0687912 43.3228 1.13656 45.3442C3.04705 48.5384 7.11511 50.1077 12.3524 50.1077C13.119 50.1077 13.9796 49.9691 14.7932 49.9016C17.5933 57.1241 21.9747 61.7141 26.9998 61.7141C32.0249 61.7141 36.4064 57.1241 39.2064 49.9016C40.0201 49.9691 40.8807 50.1077 41.6473 50.1077C46.8797 50.1077 50.9526 48.5384 52.8595 45.3442C54.0684 43.3228 54.3216 40.8145 53.5935 38.0892C52.9668 35.7532 51.6216 33.3003 49.7473 30.857ZM4.13548 22.6269C3.67263 20.9093 3.78111 19.4689 4.45249 18.3479C5.56382 16.4832 8.39641 15.4575 12.3042 15.4575C12.7055 15.4575 13.1395 15.49 13.5625 15.5117C12.8936 17.8886 12.3849 20.4741 12.0474 23.2115C10.1152 24.7061 8.3506 26.2586 6.82583 27.8461C5.53369 26.0501 4.57905 24.2806 4.13548 22.6269ZM11.6243 33.1147C10.7987 32.3674 10.0309 31.6152 9.3185 30.857C10.0297 30.0989 10.7987 29.3467 11.6243 28.5994C11.599 29.3479 11.5689 30.0928 11.5689 30.857C11.5689 31.6212 11.5978 32.3661 11.6243 33.1147ZM4.44887 43.3662C3.78231 42.2452 3.67263 40.8048 4.13669 39.0872C4.58026 37.4335 5.5349 35.664 6.82583 33.868C8.3506 35.4555 10.1164 37.008 12.0474 38.5026C12.3849 41.2436 12.8948 43.8303 13.5638 46.2096C9.01716 46.4447 5.67954 45.4237 4.44887 43.3662ZM37.5708 20.1366C36.5607 19.4954 35.5337 18.8626 34.4586 18.2635C33.6835 17.8308 32.9085 17.4306 32.1346 17.0401C33.6703 16.5796 35.1384 16.2349 36.5426 15.9794C36.953 17.3475 37.2961 18.7349 37.5708 20.1366ZM26.9998 3.85713C29.9011 3.85713 32.9687 6.99467 35.2203 12.291C32.6035 12.8105 29.8348 13.6362 27.001 14.7439C24.166 13.6362 21.3973 12.8081 18.7793 12.2886C21.0309 6.99346 24.0985 3.85713 26.9998 3.85713ZM17.457 15.9794C18.8613 16.2349 20.3294 16.5784 21.8638 17.0401C21.09 17.4306 20.3149 17.8308 19.5411 18.2635C18.4659 18.8626 17.439 19.4954 16.4289 20.1366C16.7036 18.7349 17.0467 17.3475 17.457 15.9794ZM16.4289 41.5775C17.439 42.2187 18.4659 42.8515 19.5411 43.4506C20.3511 43.9026 21.1539 44.2328 21.9627 44.6391C20.3957 45.1128 18.8902 45.478 17.4583 45.7395C17.0677 44.4341 16.717 43.0516 16.4289 41.5775ZM26.9998 57.857C24.0877 57.857 21.0068 54.6953 18.7528 49.3616C21.3829 48.8445 24.1492 48.0249 26.9998 46.9123C29.8505 48.0261 32.6168 48.8445 35.2469 49.3616C32.9928 54.6953 29.912 57.857 26.9998 57.857ZM36.5426 45.7383C35.1119 45.478 33.6076 45.1128 32.0406 44.6391C32.8482 44.2328 33.651 43.9026 34.4598 43.4518C35.5349 42.8527 36.5619 42.2199 37.572 41.5787C37.2827 43.0504 36.9331 44.4317 36.5426 45.7383ZM38.3133 36.4101C36.5342 37.7022 34.6261 38.945 32.583 40.084C30.6906 41.1399 28.8259 42.0355 27.0022 42.8081C25.1773 42.0355 23.3114 41.1399 21.4166 40.084C19.3736 38.9438 17.4655 37.7022 15.6864 36.4101C15.5188 34.6358 15.426 32.7844 15.426 30.857C15.426 28.9297 15.5188 27.0783 15.6864 25.304C17.4655 24.0118 19.3736 22.7691 21.4166 21.6301C23.3078 20.5754 25.1761 19.6677 26.9986 18.8951C28.8223 19.6677 30.6906 20.5754 32.583 21.6301C34.6261 22.7703 36.5342 24.0118 38.3133 25.304C38.4796 27.0783 38.5736 28.9297 38.5736 30.857C38.5736 32.7844 38.4796 34.6358 38.3133 36.4101ZM41.6967 15.4562C45.6033 15.4562 48.437 16.4832 49.552 18.3467C50.2186 19.4677 50.3282 20.9081 49.8642 22.6257C49.4206 24.2794 48.466 26.0489 47.175 27.8449C45.6503 26.2574 43.8844 24.7049 41.9534 23.2103C41.6159 20.4717 41.1073 17.8874 40.4383 15.5105C40.8614 15.4888 41.2953 15.4562 41.6967 15.4562ZM42.3753 28.5994C43.201 29.3467 43.9688 30.0989 44.6812 30.857C43.9688 31.6152 43.201 32.3674 42.3753 33.1147C42.4006 32.3661 42.4308 31.6212 42.4308 30.857C42.4308 30.0928 42.4018 29.3479 42.3753 28.5994ZM49.5472 43.3662C48.3225 45.4237 44.9849 46.4447 40.4359 46.2072C41.1061 43.8279 41.6147 41.2424 41.9522 38.5026C43.8844 37.008 45.6491 35.4555 47.1738 33.868C48.4648 35.664 49.4206 37.4335 49.863 39.0872C50.327 40.8048 50.2185 42.2452 49.5472 43.3662Z" fill="#FCFCFC"/>
</svg>
